<svg id="Capa_1" xmlns="http://www.w3.org/2000/svg" version="1.1" viewBox="0 0 109.04 40.17">
  <!-- Generator: Adobe Illustrator 29.4.0, SVG Export Plug-In . SVG Version: 2.1.0 Build 152)  -->
  <defs>
    <style>
      .st0 {
        fill: #fff;
        stroke: #8a1428;
        stroke-miterlimit: 10;
      }
    </style>
  </defs>
  <path class="st0" d="M22.74,3.88h8.6v32.41h-8.21v-2.59c-1.82,2.15-4.69,3.25-7.88,3.25-7.11,0-12.13-4.8-12.13-12.35V3.88h8.54v19.24c0,3.69,2.09,5.84,5.4,5.84s5.68-2.2,5.68-5.84V3.88Z"/>
  <path class="st0" d="M60.5,3.88h8.1v32.41h-8.1v-3.09c-2.2,2.32-5.29,3.75-9.43,3.75-9.26,0-16.43-7.11-16.43-16.87,0-9.7,7.17-16.87,16.43-16.87,3.75,0,7,1.27,9.43,3.75v-3.09ZM60.72,19.92c0-5.18-3.75-8.93-8.76-8.93s-8.71,3.75-8.71,8.93,3.8,8.98,8.71,8.98c5.02,0,8.76-3.75,8.76-8.98"/>
  <path class="st0" d="M71.8,20.09c0-9.7,7.39-16.87,17.09-16.87,9.7,0,17.03,7.17,17.03,16.87,0,9.81-7.33,16.87-17.03,16.87s-17.09-7.11-17.09-16.87M97.49,20.09c0-5.35-3.75-9.04-8.6-9.04s-8.65,3.75-8.65,9.04c0,5.24,3.69,8.93,8.65,8.93,4.91,0,8.6-3.69,8.6-8.93"/>
</svg>